<svg xmlns="http://www.w3.org/2000/svg" width="13" height="13"><path d="M12.822 11.248a.588.588 0 01.178.427.588.588 0 01-.178.432l-.711.711a.613.613 0 01-.863 0l-2.539-2.535a.588.588 0 01-.178-.432v-.406a5.117 5.117 0 01-3.25 1.118 5.087 5.087 0 01-3.732-1.549A5.087 5.087 0 010 5.281a5.087 5.087 0 011.549-3.732A5.087 5.087 0 015.281 0a5.087 5.087 0 013.733 1.549 5.087 5.087 0 011.549 3.732 5.117 5.117 0 01-1.117 3.25h.406a.588.588 0 01.432.178zM2.983 7.575a3.131 3.131 0 002.3.952 3.131 3.131 0 002.3-.952 3.131 3.131 0 00.952-2.3 3.131 3.131 0 00-.952-2.3 3.131 3.131 0 00-2.3-.952 3.131 3.131 0 00-2.3.952 3.131 3.131 0 00-.952 2.3 3.131 3.131 0 00.952 2.3z" fill="#666"/></svg>