<svg xmlns="http://www.w3.org/2000/svg" width="13" height="13" viewBox="0 0 13 13">
  <path id="search" d="M12.822-.127A.588.588,0,0,1,13,.3a.588.588,0,0,1-.178.432l-.711.711a.613.613,0,0,1-.863,0L8.709-1.092a.588.588,0,0,1-.178-.432V-1.93A5.117,5.117,0,0,1,5.281-.812,5.087,5.087,0,0,1,1.549-2.361,5.087,5.087,0,0,1,0-6.094,5.087,5.087,0,0,1,1.549-9.826a5.087,5.087,0,0,1,3.732-1.549A5.087,5.087,0,0,1,9.014-9.826a5.087,5.087,0,0,1,1.549,3.732,5.117,5.117,0,0,1-1.117,3.25h.406a.588.588,0,0,1,.432.178ZM2.983-3.8a3.131,3.131,0,0,0,2.3.952,3.131,3.131,0,0,0,2.3-.952,3.131,3.131,0,0,0,.952-2.3,3.131,3.131,0,0,0-.952-2.3,3.131,3.131,0,0,0-2.3-.952,3.131,3.131,0,0,0-2.3.952,3.131,3.131,0,0,0-.952,2.3A3.131,3.131,0,0,0,2.983-3.8Z" transform="translate(0 11.375)" fill="#666"/>
</svg>
